<svg width="24" height="24" viewBox="0 0 24 24" fill="none" xmlns="http://www.w3.org/2000/svg">
<mask id="mask0_522_5072" style="mask-type:alpha" maskUnits="userSpaceOnUse" x="0" y="0" width="24" height="24">
<rect width="24" height="24" fill="#D9D9D9"/>
</mask>
<g mask="url(#mask0_522_5072)">
<path d="M11.8468 21.35L10.3899 20.05C8.69871 18.5333 7.30051 17.225 6.19534 16.125C5.09018 15.025 4.21107 14.0373 3.55802 13.162C2.90497 12.2873 2.44884 11.4833 2.18963 10.75C1.92975 10.0167 1.7998 9.26667 1.7998 8.5C1.7998 6.93333 2.32727 5.625 3.3822 4.575C4.43713 3.525 5.7516 3 7.32563 3C8.19636 3 9.02523 3.18333 9.81225 3.55C10.5993 3.91667 11.2774 4.43333 11.8468 5.1C12.4161 4.43333 13.0942 3.91667 13.8813 3.55C14.6683 3.18333 15.4971 3 16.3679 3C17.9419 3 19.2564 3.525 20.3113 4.575C21.3662 5.625 21.8937 6.93333 21.8937 8.5C21.8937 9.26667 21.7641 10.0167 21.5049 10.75C21.245 11.4833 20.7885 12.2873 20.1355 13.162C19.4824 14.0373 18.6033 15.025 17.4982 16.125C16.393 17.225 14.9948 18.5333 13.3036 20.05L11.8468 21.35ZM11.8468 18.65C13.4543 17.2167 14.7771 15.9873 15.8153 14.962C16.8535 13.9373 17.674 13.046 18.2768 12.288C18.8796 11.5293 19.2982 10.854 19.5327 10.262C19.7671 9.67067 19.8843 9.08333 19.8843 8.5C19.8843 7.5 19.5494 6.66667 18.8796 6C18.2098 5.33333 17.3726 5 16.3679 5C15.5809 5 14.8525 5.22067 14.1827 5.662C13.5129 6.104 13.0524 6.66667 12.8012 7.35H10.8923C10.6411 6.66667 10.1806 6.104 9.51084 5.662C8.84104 5.22067 8.11264 5 7.32563 5C6.32093 5 5.48369 5.33333 4.81389 6C4.14409 6.66667 3.80919 7.5 3.80919 8.5C3.80919 9.08333 3.92641 9.67067 4.16084 10.262C4.39527 10.854 4.81389 11.5293 5.41671 12.288C6.01952 13.046 6.84002 13.9373 7.87821 14.962C8.91639 15.9873 10.2392 17.2167 11.8468 18.65Z" fill="#1C1B1F"/>
</g>
</svg>
