<svg width="24" height="24" viewBox="0 0 24 24" fill="none" xmlns="http://www.w3.org/2000/svg">
<mask id="mask0_675_5338" style="mask-type:alpha" maskUnits="userSpaceOnUse" x="0" y="0" width="24" height="24">
<rect width="24" height="24" fill="#D9D9D9"/>
</mask>
<g mask="url(#mask0_675_5338)">
<path d="M12 15.3L12.7 14.6L10.625 12.5H15.3V11.5H10.625L12.7 9.4L12 8.7L8.7 12L12 15.3ZM5.625 20C5.175 20 4.79167 19.8417 4.475 19.525C4.15833 19.2083 4 18.825 4 18.375V5.625C4 5.175 4.15833 4.79167 4.475 4.475C4.79167 4.15833 5.175 4 5.625 4H10.325C10.225 3.48333 10.3417 3.02067 10.675 2.612C11.0083 2.204 11.45 2 12 2C12.55 2 12.996 2.204 13.338 2.612C13.6793 3.02067 13.7917 3.48333 13.675 4H18.375C18.825 4 19.2083 4.15833 19.525 4.475C19.8417 4.79167 20 5.175 20 5.625V18.375C20 18.825 19.8417 19.2083 19.525 19.525C19.2083 19.8417 18.825 20 18.375 20H5.625ZM5.625 19H18.375C18.5417 19 18.6873 18.9373 18.812 18.812C18.9373 18.6873 19 18.5417 19 18.375V5.625C19 5.45833 18.9373 5.31267 18.812 5.188C18.6873 5.06267 18.5417 5 18.375 5H5.625C5.45833 5 5.31267 5.06267 5.188 5.188C5.06267 5.31267 5 5.45833 5 5.625V18.375C5 18.5417 5.06267 18.6873 5.188 18.812C5.31267 18.9373 5.45833 19 5.625 19ZM12 4.45C12.2167 4.45 12.396 4.379 12.538 4.237C12.6793 4.09567 12.75 3.91667 12.75 3.7C12.75 3.48333 12.6793 3.304 12.538 3.162C12.396 3.02067 12.2167 2.95 12 2.95C11.7833 2.95 11.6043 3.02067 11.463 3.162C11.321 3.304 11.25 3.48333 11.25 3.7C11.25 3.91667 11.321 4.09567 11.463 4.237C11.6043 4.379 11.7833 4.45 12 4.45Z" fill=""/>
</g>
</svg>
