<svg width="24" height="24" viewBox="0 0 24 24" fill="none" xmlns="http://www.w3.org/2000/svg">
<mask id="mask0_522_5069" style="mask-type:alpha" maskUnits="userSpaceOnUse" x="0" y="0" width="24" height="24">
<rect width="24" height="24" fill="#D9D9D9"/>
</mask>
<g mask="url(#mask0_522_5069)">
<path d="M4 18C3.45 18 2.97933 17.8043 2.588 17.413C2.196 17.021 2 16.55 2 16V8C2 7.45 2.196 6.97933 2.588 6.588C2.97933 6.196 3.45 6 4 6H20C20.55 6 21.021 6.196 21.413 6.588C21.8043 6.97933 22 7.45 22 8V16C22 16.55 21.8043 17.021 21.413 17.413C21.021 17.8043 20.55 18 20 18H4ZM4 16H20V8H17V12H15V8H13V12H11V8H9V12H7V8H4V16Z" fill="#1C1B1F"/>
</g>
</svg>
