<?xml version="1.0" standalone="no"?>
<!DOCTYPE svg PUBLIC "-//W3C//DTD SVG 20010904//EN"
 "http://www.w3.org/TR/2001/REC-SVG-20010904/DTD/svg10.dtd">
<svg version="1.0" xmlns="http://www.w3.org/2000/svg"
 width="116.000000pt" height="116.000000pt" viewBox="0 0 116.000000 116.000000"
 preserveAspectRatio="xMidYMid meet">
<metadata>
Created by potrace 1.11, written by Peter Selinger 2001-2013
</metadata>
<g transform="translate(0.000000,116.000000) scale(0.100000,-0.100000)"
fill="#000000" stroke="none">
<path d="M555 1153 c-18 -4 -139 -53 -221 -89 -16 -7 -68 -29 -115 -49 -46
-20 -94 -46 -106 -57 l-23 -21 0 -361 c1 -281 4 -365 14 -378 14 -19 28 -25
275 -129 105 -44 178 -69 202 -69 54 0 453 165 477 197 18 25 17 731 -2 755
-13 17 -406 189 -456 200 -14 3 -34 3 -45 1z m161 -82 c49 -21 140 -60 202
-87 61 -26 113 -52 113 -58 5 -40 4 -698 -2 -707 -8 -14 -395 -179 -435 -186
-24 -4 -81 16 -247 86 -118 51 -217 97 -219 104 -4 11 -3 656 1 698 1 17 51
41 308 149 138 59 147 59 279 1z"/>
<path d="M372 890 c-12 -12 -22 -32 -22 -45 0 -20 99 -268 185 -466 30 -68 31
-85 5 -99 -16 -9 -24 -6 -42 15 -28 32 -40 32 -36 -2 4 -40 47 -62 89 -46 24
9 36 10 46 2 7 -7 27 -9 45 -5 40 8 43 8 90 0 43 -7 78 20 78 62 0 14 -47 137
-105 274 -58 138 -105 256 -105 265 0 8 9 19 20 25 17 9 25 6 46 -17 20 -22
27 -24 34 -13 23 37 -42 81 -91 63 -21 -8 -37 -8 -58 0 -22 8 -36 8 -54 0 -14
-7 -29 -8 -38 -2 -24 15 -64 10 -87 -11z m88 -60 c0 -9 47 -129 105 -266 58
-137 105 -252 105 -256 0 -4 -7 -14 -16 -22 -21 -21 -49 -6 -58 31 -4 16 -46
120 -93 233 -134 318 -127 296 -101 314 20 14 24 14 40 -1 10 -9 18 -24 18
-33z m121 -43 c14 -39 63 -160 109 -267 46 -107 83 -204 82 -214 -3 -49 -56
-39 -70 12 -5 21 -55 146 -111 279 -55 132 -98 248 -95 256 7 19 35 27 49 15
5 -4 21 -41 36 -81z"/>
</g>
</svg>
