<?xml version="1.0" standalone="no"?>
<!DOCTYPE svg PUBLIC "-//W3C//DTD SVG 20010904//EN"
 "http://www.w3.org/TR/2001/REC-SVG-20010904/DTD/svg10.dtd">
<svg version="1.0" xmlns="http://www.w3.org/2000/svg"
 width="227.000000pt" height="227.000000pt" viewBox="0 0 227.000000 227.000000"
 preserveAspectRatio="xMidYMid meet">
<metadata>
Created by potrace 1.14, written by Peter Selinger 2001-2017
</metadata>
<g transform="translate(0.000000,227.000000) scale(0.100000,-0.100000)"
fill="#000000" stroke="none">
<path d="M524 2256 c-83 -30 -146 -101 -166 -185 -14 -60 -3 -103 67 -266 24
-55 69 -163 100 -240 32 -77 66 -158 75 -180 10 -22 71 -166 135 -320 64 -154
122 -293 130 -310 16 -36 24 -56 126 -299 43 -104 79 -203 79 -221 0 -59 -65
-116 -125 -109 -44 5 -71 22 -91 60 -18 34 -20 34 -77 33 -32 -1 -60 -5 -62
-9 -10 -16 22 -85 58 -126 56 -64 88 -78 177 -78 73 0 110 12 171 56 13 9 23
6 50 -15 75 -56 187 -59 272 -7 49 31 67 36 67 22 0 -5 21 -19 47 -32 55 -27
142 -35 200 -17 56 17 128 93 146 155 27 91 24 103 -153 522 -62 146 -165 391
-230 545 -64 154 -163 389 -219 521 -55 133 -101 254 -101 268 0 40 26 84 62
102 61 31 147 -1 162 -62 6 -22 11 -24 71 -24 l65 0 -7 33 c-21 114 -115 190
-233 191 -55 0 -74 -5 -125 -33 l-60 -33 -50 31 c-89 55 -196 49 -281 -18
l-25 -19 -50 34 c-28 19 -61 35 -73 36 -81 5 -105 4 -132 -6z m519 -156 c17
-19 27 -42 28 -63 0 -17 2 -41 4 -52 5 -24 91 -236 215 -530 153 -362 207
-491 281 -669 39 -94 79 -188 89 -210 58 -129 130 -320 130 -343 0 -39 -35
-91 -65 -99 -37 -9 -94 2 -117 23 -29 26 -58 87 -58 122 0 16 -36 116 -81 223
-45 106 -109 261 -144 343 -34 83 -124 296 -200 475 -212 503 -285 686 -285
719 0 35 55 97 92 103 39 6 82 -10 111 -42z m-379 19 c32 -25 45 -54 51 -114
2 -23 39 -125 81 -226 42 -101 102 -247 134 -324 32 -77 69 -165 83 -195 14
-30 80 -188 147 -350 67 -162 156 -373 196 -468 86 -202 90 -228 40 -278 -32
-32 -53 -39 -101 -34 -53 5 -92 58 -102 138 -3 26 -25 92 -48 147 -24 55 -66
156 -95 225 -28 69 -87 208 -130 310 -123 291 -365 866 -404 962 -40 96 -44
136 -20 174 36 55 120 71 168 33z"/>
</g>
</svg>
