<svg width="24" height="24" viewBox="0 0 24 24" fill="none" xmlns="http://www.w3.org/2000/svg">
<mask id="mask0_675_5235" style="mask-type:alpha" maskUnits="userSpaceOnUse" x="0" y="0" width="24" height="24">
<rect width="24" height="24" fill="#D9D9D9"/>
</mask>
<g mask="url(#mask0_675_5235)">
<path d="M4 8.8H20V6.625C20 6.45833 19.9373 6.31267 19.812 6.188C19.6873 6.06267 19.5417 6 19.375 6H4.625C4.45833 6 4.31267 6.06267 4.188 6.188C4.06267 6.31267 4 6.45833 4 6.625V8.8ZM3 6.625C3 6.15833 3.15433 5.771 3.463 5.463C3.771 5.15433 4.15833 5 4.625 5H19.375C19.8417 5 20.2293 5.15433 20.538 5.463C20.846 5.771 21 6.15833 21 6.625V11.2H4V17.375C4 17.5417 4.06267 17.6873 4.188 17.812C4.31267 17.9373 4.45833 18 4.625 18H9.275V19H4.625C4.15833 19 3.771 18.846 3.463 18.538C3.15433 18.2293 3 17.8417 3 17.375V6.625ZM14.65 20.55L11.075 16.975L11.8 16.275L14.65 19.1L20.325 13.425L21.05 14.15L14.65 20.55ZM4 6.625V17.375C4 17.5417 4.06267 17.6873 4.188 17.812C4.31267 17.9373 4.45833 18 4.625 18H4V13.45V16.275V6H4.625C4.45833 6 4.31267 6.06267 4.188 6.188C4.06267 6.31267 4 6.45833 4 6.625Z" fill=""/>
</g>
</svg>
