<svg width="25" height="25" viewBox="0 0 25 25" fill="none" xmlns="http://www.w3.org/2000/svg">
<mask id="mask0_969_8549" style="mask-type:alpha" maskUnits="userSpaceOnUse" x="0" y="0" width="25" height="25">
<rect x="0.121094" y="0.0117188" width="24" height="24" fill="#D9D9D9"/>
</mask>
<g mask="url(#mask0_969_8549)">
<path d="M6.74609 21.0117C6.29609 21.0117 5.91276 20.8534 5.59609 20.5367C5.27943 20.2201 5.12109 19.8367 5.12109 19.3867V10.6367C5.12109 10.1867 5.27943 9.80339 5.59609 9.48672C5.91276 9.17005 6.29609 9.01172 6.74609 9.01172H8.12109V7.01172C8.12109 5.89505 8.50876 4.94905 9.28409 4.17372C10.0588 3.39905 11.0044 3.01172 12.1211 3.01172C13.2378 3.01172 14.1838 3.39905 14.9591 4.17372C15.7338 4.94905 16.1211 5.89505 16.1211 7.01172V9.01172H17.4961C17.9461 9.01172 18.3294 9.17005 18.6461 9.48672C18.9628 9.80339 19.1211 10.1867 19.1211 10.6367V19.3867C19.1211 19.8367 18.9628 20.2201 18.6461 20.5367C18.3294 20.8534 17.9461 21.0117 17.4961 21.0117H6.74609ZM6.74609 20.0117H17.4961C17.6794 20.0117 17.8294 19.9534 17.9461 19.8367C18.0628 19.7201 18.1211 19.5701 18.1211 19.3867V10.6367C18.1211 10.4534 18.0628 10.3034 17.9461 10.1867C17.8294 10.0701 17.6794 10.0117 17.4961 10.0117H6.74609C6.56276 10.0117 6.41276 10.0701 6.29609 10.1867C6.17943 10.3034 6.12109 10.4534 6.12109 10.6367V19.3867C6.12109 19.5701 6.17943 19.7201 6.29609 19.8367C6.41276 19.9534 6.56276 20.0117 6.74609 20.0117ZM12.1211 16.5117C12.5378 16.5117 12.8918 16.3657 13.1831 16.0737C13.4751 15.7824 13.6211 15.4284 13.6211 15.0117C13.6211 14.5951 13.4751 14.2411 13.1831 13.9497C12.8918 13.6577 12.5378 13.5117 12.1211 13.5117C11.7044 13.5117 11.3504 13.6577 11.0591 13.9497C10.7671 14.2411 10.6211 14.5951 10.6211 15.0117C10.6211 15.4284 10.7671 15.7824 11.0591 16.0737C11.3504 16.3657 11.7044 16.5117 12.1211 16.5117ZM9.12109 9.01172H15.1211V7.01172C15.1211 6.17839 14.8294 5.47005 14.2461 4.88672C13.6628 4.30339 12.9544 4.01172 12.1211 4.01172C11.2878 4.01172 10.5794 4.30339 9.99609 4.88672C9.41276 5.47005 9.12109 6.17839 9.12109 7.01172V9.01172Z" fill="#1C1B1F"/>
</g>
</svg>
