<svg width="24" height="25" viewBox="0 0 24 25" fill="none" xmlns="http://www.w3.org/2000/svg">
<mask id="mask0_969_8542" style="mask-type:alpha" maskUnits="userSpaceOnUse" x="0" y="0" width="24" height="25">
<rect y="0.199219" width="24" height="24" fill="#D9D9D9"/>
</mask>
<g mask="url(#mask0_969_8542)">
<path d="M3 10.1992C3 8.86589 3.275 7.60755 3.825 6.42422C4.375 5.24089 5.14167 4.21589 6.125 3.34922L6.85 4.04922C5.95 4.83255 5.25 5.75322 4.75 6.81122C4.25 7.86989 4 8.99922 4 10.1992H3ZM20 10.1992C20 8.99922 19.75 7.86989 19.25 6.81122C18.75 5.75322 18.05 4.83255 17.15 4.04922L17.875 3.34922C18.8583 4.21589 19.625 5.24089 20.175 6.42422C20.725 7.60755 21 8.86589 21 10.1992H20ZM4.5 18.9242V17.9242H6.5V10.4242C6.5 9.14089 6.91667 7.98255 7.75 6.94922C8.58333 5.91589 9.66667 5.27422 11 5.02422V4.32422C11 4.02422 11.096 3.78255 11.288 3.59922C11.4793 3.41589 11.7167 3.32422 12 3.32422C12.2833 3.32422 12.521 3.41589 12.713 3.59922C12.9043 3.78255 13 4.02422 13 4.32422V5.02422C14.3333 5.27422 15.4167 5.91589 16.25 6.94922C17.0833 7.98255 17.5 9.14089 17.5 10.4242V17.9242H19.5V18.9242H4.5ZM12 21.8242C11.5667 21.8242 11.1877 21.6702 10.863 21.3622C10.5377 21.0536 10.375 20.6659 10.375 20.1992H13.625C13.625 20.6659 13.471 21.0536 13.163 21.3622C12.8543 21.6702 12.4667 21.8242 12 21.8242ZM7.5 17.9242H16.5V10.4242C16.5 9.19089 16.0583 8.13255 15.175 7.24922C14.2917 6.36589 13.2333 5.92422 12 5.92422C10.7667 5.92422 9.70833 6.36589 8.825 7.24922C7.94167 8.13255 7.5 9.19089 7.5 10.4242V17.9242Z" fill="#1C1B1F"/>
</g>
</svg>
