<svg width="25" height="25" viewBox="0 0 25 25" fill="none" xmlns="http://www.w3.org/2000/svg">
<mask id="mask0_969_8535" style="mask-type:alpha" maskUnits="userSpaceOnUse" x="0" y="0" width="25" height="25">
<rect x="0.332031" y="0.878906" width="24" height="24" fill="#D9D9D9"/>
</mask>
<g mask="url(#mask0_969_8535)">
<path d="M10.457 21.8789L10.107 18.9789C9.79036 18.8956 9.4447 18.7499 9.07003 18.5419C8.6947 18.3332 8.38203 18.1122 8.13203 17.8789L5.45703 19.0039L3.58203 15.7539L5.90703 14.0039C5.8737 13.8372 5.8447 13.6579 5.82003 13.4659C5.7947 13.2746 5.78203 13.0872 5.78203 12.9039C5.78203 12.7372 5.7947 12.5579 5.82003 12.3659C5.8447 12.1746 5.8737 11.9706 5.90703 11.7539L3.58203 10.0039L5.45703 6.80391L8.10703 7.90391C8.40703 7.65391 8.72803 7.42891 9.07003 7.22891C9.41136 7.02891 9.7487 6.87891 10.082 6.77891L10.457 3.87891H14.207L14.557 6.77891C14.9404 6.92891 15.278 7.08724 15.57 7.25391C15.8614 7.42057 16.1654 7.63724 16.482 7.90391L19.207 6.80391L21.082 10.0039L18.682 11.8039C18.7487 12.0039 18.782 12.1916 18.782 12.3669V12.8789C18.782 13.0289 18.778 13.1916 18.77 13.3669C18.7614 13.5416 18.732 13.7539 18.682 14.0039L21.032 15.7539L19.157 19.0039L16.482 17.8539C16.1654 18.1206 15.853 18.3456 15.545 18.5289C15.2364 18.7122 14.907 18.8622 14.557 18.9789L14.207 21.8789H10.457ZM12.307 15.3789C13.007 15.3789 13.5987 15.1372 14.082 14.6539C14.5654 14.1706 14.807 13.5789 14.807 12.8789C14.807 12.1789 14.5654 11.5872 14.082 11.1039C13.5987 10.6206 13.007 10.3789 12.307 10.3789C11.607 10.3789 11.0154 10.6206 10.532 11.1039C10.0487 11.5872 9.80703 12.1789 9.80703 12.8789C9.80703 13.5789 10.0487 14.1706 10.532 14.6539C11.0154 15.1372 11.607 15.3789 12.307 15.3789ZM12.307 14.3789C11.8904 14.3789 11.5364 14.2329 11.245 13.9409C10.953 13.6496 10.807 13.2956 10.807 12.8789C10.807 12.4622 10.953 12.1082 11.245 11.8169C11.5364 11.5249 11.8904 11.3789 12.307 11.3789C12.7237 11.3789 13.078 11.5249 13.37 11.8169C13.6614 12.1082 13.807 12.4622 13.807 12.8789C13.807 13.2956 13.6614 13.6496 13.37 13.9409C13.078 14.2329 12.7237 14.3789 12.307 14.3789ZM11.332 20.8789H13.282L13.657 18.1789C14.157 18.0456 14.6114 17.8622 15.02 17.6289C15.428 17.3956 15.8404 17.0706 16.257 16.6539L18.732 17.7289L19.732 16.0289L17.557 14.3789C17.6404 14.0956 17.6947 13.8329 17.72 13.5909C17.7447 13.3496 17.757 13.1122 17.757 12.8789C17.757 12.6289 17.7447 12.3912 17.72 12.1659C17.6947 11.9412 17.6404 11.6872 17.557 11.4039L19.782 9.72891L18.782 8.02891L16.232 9.10391C15.932 8.77057 15.5364 8.45791 15.045 8.16591C14.553 7.87457 14.082 7.67891 13.632 7.57891L13.332 4.87891H11.332L11.032 7.57891C10.532 7.67891 10.0694 7.84957 9.64403 8.09091C9.21936 8.33291 8.7987 8.66224 8.38203 9.07891L5.88203 8.02891L4.88203 9.72891L7.05703 11.3539C6.9737 11.5706 6.91536 11.8122 6.88203 12.0789C6.8487 12.3456 6.83203 12.6206 6.83203 12.9039C6.83203 13.1539 6.8487 13.4039 6.88203 13.6539C6.91536 13.9039 6.96536 14.1456 7.03203 14.3789L4.88203 16.0289L5.88203 17.7289L8.35703 16.6789C8.75703 17.0789 9.16536 17.3956 9.58203 17.6289C9.9987 17.8622 10.4737 18.0456 11.007 18.1789L11.332 20.8789Z" fill="#1C1B1F"/>
</g>
</svg>
