<svg width="24" height="24" viewBox="0 0 24 24" fill="none" xmlns="http://www.w3.org/2000/svg">
<mask id="mask0_538_6594" style="mask-type:alpha" maskUnits="userSpaceOnUse" x="0" y="0" width="24" height="24">
<rect width="24" height="24" fill="#D9D9D9"/>
</mask>
<g mask="url(#mask0_538_6594)">
<path d="M9.2 16L12 13.9L14.75 16L13.7 12.6L16.5 10.4H13.1L12 7L10.9 10.4H7.5L10.25 12.6L9.2 16ZM4 20C3.45 20 2.97933 19.8043 2.588 19.413C2.196 19.021 2 18.55 2 18V14C2.55 14 3.021 13.804 3.413 13.412C3.80433 13.0207 4 12.55 4 12C4 11.45 3.80433 10.979 3.413 10.587C3.021 10.1957 2.55 10 2 10V6C2 5.45 2.196 4.97933 2.588 4.588C2.97933 4.196 3.45 4 4 4H20C20.55 4 21.021 4.196 21.413 4.588C21.8043 4.97933 22 5.45 22 6V10C21.45 10 20.979 10.1957 20.587 10.587C20.1957 10.979 20 11.45 20 12C20 12.55 20.1957 13.0207 20.587 13.412C20.979 13.804 21.45 14 22 14V18C22 18.55 21.8043 19.021 21.413 19.413C21.021 19.8043 20.55 20 20 20H4ZM4 18H20V15.45C19.3833 15.0833 18.896 14.596 18.538 13.988C18.1793 13.3793 18 12.7167 18 12C18 11.2833 18.1793 10.6207 18.538 10.012C18.896 9.404 19.3833 8.91667 20 8.55V6H4V8.55C4.61667 8.91667 5.10433 9.404 5.463 10.012C5.821 10.6207 6 11.2833 6 12C6 12.7167 5.821 13.3793 5.463 13.988C5.10433 14.596 4.61667 15.0833 4 15.45V18Z" fill="#1C1B1F"/>
</g>
</svg>
